<svg width="157" height="157" viewBox="0 0 157 157" fill="none" xmlns="http://www.w3.org/2000/svg">
<path fill-rule="evenodd" clip-rule="evenodd" d="M98.125 78.5C112.582 78.5 124.292 66.7904 124.292 52.3333C124.292 37.8762 112.582 26.1667 98.125 26.1667C83.6679 26.1667 71.9583 37.8762 71.9583 52.3333C71.9583 66.7904 83.6679 78.5 98.125 78.5ZM98.125 39.25C105.321 39.25 111.208 45.1375 111.208 52.3333C111.208 59.5292 105.321 65.4167 98.125 65.4167C90.9292 65.4167 85.0417 59.5292 85.0417 52.3333C85.0417 45.1375 90.9292 39.25 98.125 39.25ZM45.7917 117.75C45.7917 100.349 80.6588 91.5833 98.125 91.5833C115.591 91.5833 150.458 100.349 150.458 117.75V130.833H45.7917V117.75ZM58.875 117.75C60.3142 113.04 80.5279 104.667 98.125 104.667C115.788 104.667 136.067 113.105 137.375 117.75H58.875ZM39.25 78.5V98.125H26.1667V78.5H6.54167V65.4167H26.1667V45.7917H39.25V65.4167H58.875V78.5H39.25Z" fill="black" fill-opacity="0.54"/>
</svg>
