<svg width="201" height="160" viewBox="0 0 201 160" fill="none" xmlns="http://www.w3.org/2000/svg">
<g id="timeline_24px">
<path id="icon/action/timeline_24px" d="M201 25.375C201 34.3812 194.351 41.75 186.225 41.75C184.895 41.75 183.639 41.5862 182.457 41.1769L125.684 122.993C126.053 124.302 126.201 125.776 126.201 127.25C126.201 136.256 119.552 143.625 111.426 143.625C103.3 143.625 96.6507 136.256 96.6507 127.25C96.6507 125.776 96.7985 124.302 97.1678 122.993L78.3296 102.114C77.1476 102.524 75.8178 102.687 74.488 102.687C73.1583 102.687 71.8285 102.524 70.6465 102.114L37.0331 139.449C37.4025 140.759 37.5502 142.151 37.5502 143.625C37.5502 152.631 30.9014 160 22.7751 160C14.6488 160 8 152.631 8 143.625C8 134.619 14.6488 127.25 22.7751 127.25C24.1049 127.25 25.3608 127.414 26.5428 127.823L60.23 90.57C59.8607 89.26 59.7129 87.7863 59.7129 86.3125C59.7129 77.3063 66.3617 69.9375 74.488 69.9375C82.6144 69.9375 89.2632 77.3063 89.2632 86.3125C89.2632 87.7863 89.1154 89.26 88.746 90.57L107.584 111.448C108.766 111.039 110.096 110.875 111.426 110.875C112.756 110.875 114.085 111.039 115.267 111.448L171.967 29.5506C171.598 28.2406 171.45 26.8487 171.45 25.375C171.45 16.3687 178.099 9 186.225 9C194.351 9 201 16.3687 201 25.375Z" fill="black" fill-opacity="0.54"/>
</g>
</svg>
